# Unit cube centered at origin
# 6 faces, 12 triangles, per-face normals

# Vertices
v -0.5 -0.5 -0.5
v  0.5 -0.5 -0.5
v  0.5  0.5 -0.5
v -0.5  0.5 -0.5
v -0.5 -0.5  0.5
v  0.5 -0.5  0.5
v  0.5  0.5  0.5
v -0.5  0.5  0.5

# Normals
vn  0  0 -1
vn  0  0  1
vn -1  0  0
vn  1  0  0
vn  0 -1  0
vn  0  1  0

# UVs (simple planar)
vt 0 0
vt 1 0
vt 1 1
vt 0 1

# Back face (-Z)
f 1/1/1 3/3/1 2/2/1
f 1/1/1 4/4/1 3/3/1

# Front face (+Z)
f 5/1/2 6/2/2 7/3/2
f 5/1/2 7/3/2 8/4/2

# Left face (-X)
f 1/1/3 8/3/3 4/4/3
f 1/1/3 5/2/3 8/3/3

# Right face (+X)
f 2/1/4 3/2/4 7/3/4
f 2/1/4 7/3/4 6/4/4

# Bottom face (-Y)
f 1/1/5 2/2/5 6/3/5
f 1/1/5 6/3/5 5/4/5

# Top face (+Y)
f 4/1/6 7/3/6 3/2/6
f 4/1/6 8/4/6 7/3/6
